<svg width="48" height="49" viewBox="0 0 48 49" fill="none" xmlns="http://www.w3.org/2000/svg">
<g id="Icon">
<g id="Group 2">
<path id="Vector" d="M24.9036 18.8943L24.9033 23.9172V23.9172V23.9757C24.9033 24.0922 24.9184 24.2052 24.9466 24.313L24.8988 25.1307L24.8962 25.1747C24.885 25.3663 24.8103 25.534 24.6842 25.6603L26.1268 24.7153C26.0445 24.7018 25.9624 24.6727 25.8806 24.6281L25.4844 24.4123V23.9757V23.9172V18.8943M24.9036 18.8943V18.8943L25.194 18.8943L25.4844 18.8943M24.9036 18.8943C24.9036 19.0547 25.0338 19.1847 25.194 19.1847C25.3544 19.1847 25.4844 19.0544 25.4844 18.8943M24.9036 18.8943H25.194H25.4844M19.2833 18.4453L19.2833 18.4454L19.2833 18.4453ZM19.2833 18.4453C19.0703 18.8164 18.5586 18.9549 18.1849 18.7403L19.2833 18.4453ZM17.8522 19.318L17.8516 19.3177C17.5772 19.1593 17.3794 18.8998 17.2976 18.5958L17.2974 18.5953L17.2974 18.5952L17.297 18.5937C17.2304 18.3432 17.2473 18.0811 17.3431 17.8436V17.6491C17.1722 17.944 17.1265 18.2883 17.2149 18.6174C17.3028 18.9463 17.5141 19.2213 17.8095 19.3925L17.8522 19.318ZM25.0957 26.0714L25.1558 26.1315L25.0957 26.0714L25.095 26.0721C24.8442 26.3224 24.5077 26.4606 24.1545 26.4606C24.1545 26.4606 24.1545 26.4606 24.1545 26.4606C23.6743 26.4605 23.2532 26.2054 23.0194 25.8234C22.9954 25.8357 22.9711 25.8476 22.9465 25.859L25.0957 26.0714ZM17.9195 17.984C17.8377 18.1257 17.8166 18.2872 17.8587 18.4444C17.8587 18.4445 17.8588 18.4445 17.8588 18.4446L17.8588 18.4447L17.859 18.4453C17.9007 18.6017 17.9992 18.7312 18.142 18.8147C18.142 18.8147 18.1421 18.8147 18.1421 18.8148L17.9195 17.984Z" fill="#FDD293" stroke="#FDD293" stroke-width="1.33333"/>
<path id="Vector_2" d="M16.1254 31.2917C15.9468 31.3992 15.7159 31.3412 15.6092 31.1629C15.5022 30.9848 15.5602 30.7536 15.738 30.6467L16.1254 31.2917ZM11.747 26.927C11.7616 26.9006 11.7753 26.876 11.788 26.8531C11.8392 26.7608 11.8739 26.6983 11.8879 26.6732L11.9637 26.7131C11.9169 26.7975 11.8709 26.8802 11.8258 26.9614C11.7994 26.9515 11.7731 26.9401 11.747 26.927ZM22.1555 29.2211C22.3077 29.1296 22.4151 28.985 22.458 28.8132C22.5009 28.6417 22.4742 28.4634 22.3831 28.3112L22.1555 29.2211Z" fill="#FDD293" stroke="#FDD293" stroke-width="1.33333"/>
<path id="Vector_3" d="M27.853 28.5937C27.759 28.5354 27.6734 28.4664 27.5978 28.3884L26.8785 28.012L26.8784 28.012L26.8384 27.991C26.7246 27.9315 26.6086 27.9032 26.4967 27.903L27.853 28.5937ZM26.1719 27.3624C26.1721 27.3623 26.1722 27.3623 26.1723 27.3623L26.2277 27.5845L26.2277 27.5846L26.3128 27.926L26.3127 27.926L26.1719 27.3624ZM30.3874 34.286C30.3873 34.2859 30.3871 34.2858 30.387 34.2858L30.3874 34.286ZM25.8453 30.6876L25.8466 30.6884L25.8453 30.6876Z" fill="#FDD293" stroke="#FDD293" stroke-width="1.33333"/>
</g>
</g>
</svg>
