<svg width="48" height="49" viewBox="0 0 48 49" fill="none" xmlns="http://www.w3.org/2000/svg">
<rect width="48" height="49" fill="#F5F5F5"/>
<path d="M-2464 -3078C-2464 -3079.1 -2463.1 -3080 -2462 -3080H7721C7722.1 -3080 7723 -3079.1 7723 -3078V4432C7723 4433.1 7722.1 4434 7721 4434H-2462C-2463.1 4434 -2464 4433.1 -2464 4432V-3078Z" fill="white"/>
<path d="M-2462 -3079H7721V-3081H-2462V-3079ZM7722 -3078V4432H7724V-3078H7722ZM7721 4433H-2462V4435H7721V4433ZM-2463 4432V-3078H-2465V4432H-2463ZM-2462 4433C-2462.55 4433 -2463 4432.55 -2463 4432H-2465C-2465 4433.66 -2463.66 4435 -2462 4435V4433ZM7722 4432C7722 4432.55 7721.55 4433 7721 4433V4435C7722.66 4435 7724 4433.66 7724 4432H7722ZM7721 -3079C7721.55 -3079 7722 -3078.55 7722 -3078H7724C7724 -3079.66 7722.66 -3081 7721 -3081V-3079ZM-2462 -3081C-2463.66 -3081 -2465 -3079.66 -2465 -3078H-2463C-2463 -3078.55 -2462.55 -3079 -2462 -3079V-3081Z" fill="black" fill-opacity="0.1"/>
<g clip-path="url(#clip0_0_1)">
<rect x="-1041" y="-1835" width="1440" height="4069" fill="white"/>
<rect width="1440" height="272" transform="translate(-1041 -67.5)" fill="#3D545B"/>
<g clip-path="url(#clip1_0_1)">
<g clip-path="url(#clip2_0_1)">
<path d="M24.9033 18.8938L24.9031 23.9167V23.9168V23.9752C24.9031 24.0917 24.9181 24.2047 24.9463 24.3125L24.8985 25.1302L24.896 25.1742C24.8848 25.3659 24.8101 25.5335 24.684 25.6598L26.1265 24.7148C26.0443 24.7013 25.9622 24.6722 25.8803 24.6276L25.4841 24.4119V23.9752V23.9168V18.8938M24.9033 18.8938V18.8938L25.1937 18.8938L25.4841 18.8938M24.9033 18.8938C24.9033 19.0542 25.0336 19.1842 25.1937 19.1842C25.3542 19.1842 25.4841 19.0539 25.4841 18.8938M24.9033 18.8938H25.1937H25.4841M19.283 18.4448L19.2831 18.4449L19.283 18.4448ZM19.283 18.4448C19.0701 18.8159 18.5583 18.9544 18.1847 18.7398L19.283 18.4448ZM17.852 19.3175L17.8514 19.3172C17.577 19.1588 17.3792 18.8993 17.2973 18.5953L17.2972 18.5948L17.2972 18.5947L17.2968 18.5932C17.2302 18.3427 17.247 18.0806 17.3428 17.8431V17.6486C17.172 17.9436 17.1263 18.2878 17.2146 18.6169C17.3025 18.9458 17.5139 19.2208 17.8093 19.392L17.852 19.3175ZM25.0955 26.0709L25.1555 26.131L25.0954 26.0709L25.0948 26.0716C24.844 26.3219 24.5075 26.4601 24.1543 26.4601C24.1543 26.4601 24.1542 26.4601 24.1542 26.4601C23.6741 26.4601 23.253 26.2049 23.0192 25.8229C22.9951 25.8352 22.9708 25.8471 22.9462 25.8585L25.0955 26.0709ZM17.9192 17.9835C17.8375 18.1252 17.8163 18.2867 17.8585 18.4439C17.8585 18.444 17.8585 18.444 17.8585 18.4441L17.8586 18.4442L17.8587 18.4448C17.9005 18.6012 17.9989 18.7307 18.1417 18.8142C18.1418 18.8142 18.1418 18.8142 18.1419 18.8143L17.9192 17.9835Z" fill="#FDD293" stroke="#FDD293" stroke-width="1.33333"/>
<path d="M16.1251 31.2918C15.9465 31.3992 15.7157 31.3413 15.6089 31.1629C15.502 30.9848 15.5599 30.7537 15.7378 30.6467L16.1251 31.2918ZM11.7467 26.9271C11.7614 26.9007 11.7751 26.876 11.7877 26.8532C11.839 26.7609 11.8737 26.6983 11.8876 26.6732L11.9634 26.7132C11.9166 26.7975 11.8707 26.8803 11.8256 26.9615C11.7992 26.9515 11.7729 26.9401 11.7467 26.9271ZM22.1552 29.2211C22.3074 29.1297 22.4149 28.985 22.4577 28.8133C22.5006 28.6418 22.474 28.4634 22.3828 28.3112L22.1552 29.2211Z" fill="#FDD293" stroke="#FDD293" stroke-width="1.33333"/>
<path d="M27.8527 28.5933C27.7587 28.535 27.6732 28.466 27.5976 28.388L26.8782 28.0117L26.8782 28.0116L26.8381 27.9907C26.7243 27.9311 26.6083 27.9029 26.4965 27.9026L27.8527 28.5933ZM26.1717 27.362C26.1718 27.362 26.1719 27.3619 26.1721 27.3619L26.2275 27.5842L26.2275 27.5842L26.3126 27.9256L26.3125 27.9256L26.1717 27.362ZM30.3872 34.2857C30.387 34.2856 30.3869 34.2855 30.3867 34.2854L30.3872 34.2857ZM25.845 30.6872L25.8464 30.688L25.845 30.6872Z" fill="#FDD293" stroke="#FDD293" stroke-width="1.33333"/>
</g>
</g>
</g>
<rect x="-1040.5" y="-1834.5" width="1439" height="4068" stroke="black"/>
<defs>
<clipPath id="clip0_0_1">
<rect x="-1041" y="-1835" width="1440" height="4069" fill="white"/>
</clipPath>
<clipPath id="clip1_0_1">
<rect width="540" height="136" fill="white" transform="translate(-285 0.5)"/>
</clipPath>
<clipPath id="clip2_0_1">
<rect width="540" height="48" fill="white" transform="translate(-285 0.5)"/>
</clipPath>
</defs>
</svg>
