<svg width="64" height="53" viewBox="0 0 64 53" fill="none" xmlns="http://www.w3.org/2000/svg">
<g id="Parent icon">
<path id="Vector" d="M15.5543 26.6543C18.9397 26.6543 21.6842 24.2623 21.6842 21.3115C21.6842 18.3608 18.9397 15.9688 15.5543 15.9688C12.1688 15.9688 9.42432 18.3608 9.42432 21.3115C9.42432 24.2623 12.1688 26.6543 15.5543 26.6543Z" fill="#759EAB"/>
<path id="Vector_2" d="M28.4876 30.2375C27.4772 28.9458 27.2078 27.3019 27.8814 25.7754L21.4146 27.5367C20.2021 27.889 18.9896 28.0064 17.7771 28.0064H12.6576C10.9735 28.0064 9.35685 28.5349 8.14433 29.533L0.801882 35.3454C-0.208547 36.1674 -0.275909 37.5765 0.667158 38.4572C1.13869 38.9269 1.81231 39.1617 2.55329 39.1617C3.15955 39.1617 3.76581 38.9856 4.23734 38.5746L8.48114 35.228L6.05611 41.6276C5.65194 42.6257 6.52765 43.6825 7.80752 43.6825H9.28948L8.41378 50.4344C8.27906 51.6673 9.22212 52.7242 10.6367 52.8416C11.984 52.959 13.2638 52.137 13.3986 50.9041L14.3416 43.9174C14.3416 43.7412 14.4764 43.6825 14.6784 43.6825H16.4972C16.6993 43.6825 16.834 43.7999 16.834 43.9174L17.7771 50.9041C17.9118 52.0196 18.9896 52.8416 20.2695 52.8416C20.3368 52.8416 20.4716 52.8416 20.5389 52.8416C21.8862 52.7242 22.8966 51.6086 22.7619 50.4344L21.8862 43.6825H23.3681C24.5806 43.6825 25.4563 42.6257 25.1195 41.6276L21.482 32.0576C21.9535 31.9989 22.4924 31.8814 22.964 31.7053L28.4876 30.2375Z" fill="#759EAB"/>
<path id="Vector_3" d="M63.3812 25.8928L55.6346 15.9705C54.2873 14.2092 51.997 13.1523 49.572 13.1523H44.5198C42.0948 13.1523 39.8045 14.2092 38.4573 15.9705L30.6433 25.8928C29.7676 26.9496 29.8349 28.4762 30.9801 29.3568C32.3947 30.5311 34.5503 30.2375 35.5607 28.9458L39.6024 23.7792V50.1408C39.6024 51.4325 40.6128 52.6655 42.0948 52.8416C43.9809 53.1352 45.5976 51.8435 45.5976 50.2583V34.6409C45.5976 34.3473 45.8671 34.0538 46.2712 34.0538H47.8206C48.1574 34.0538 48.4942 34.2886 48.4942 34.6409V50.1996C48.4942 51.4912 49.5046 52.7242 50.9866 52.959C52.8727 53.2526 54.4894 51.9609 54.4894 50.3757V23.8379L58.5311 29.0046C59.1374 29.7678 60.0804 30.1788 61.0235 30.1788C61.6971 30.1788 62.3707 30.0027 62.977 29.5917C64.1895 28.6523 64.3242 27.0084 63.3812 25.8928Z" fill="#759EAB"/>
<path id="Vector_4" d="M47.0121 11.625C50.6952 11.625 53.6809 9.02262 53.6809 5.81248C53.6809 2.60234 50.6952 0 47.0121 0C43.329 0 40.3433 2.60234 40.3433 5.81248C40.3433 9.02262 43.329 11.625 47.0121 11.625Z" fill="#759EAB"/>
</g>
</svg>
