<svg width="45" height="40" viewBox="0 0 45 40" fill="none" xmlns="http://www.w3.org/2000/svg">
<g id="Group">
<path id="Vector" d="M22.4997 7.23119C24.1605 7.23119 25.5119 8.57015 25.5119 10.2156C25.5119 11.8611 24.1605 13.2001 22.4997 13.2001C20.839 13.2001 19.4875 11.8611 19.4875 10.2156C19.4875 8.57015 20.839 7.23119 22.4997 7.23119ZM22.4997 5.83789C20.0599 5.83789 18.0813 7.79826 18.0813 10.2156C18.0813 12.633 20.0599 14.5934 22.4997 14.5934C24.9396 14.5934 26.9182 12.633 26.9182 10.2156C26.9182 7.79826 24.9396 5.83789 22.4997 5.83789Z" fill="#3D545B"/>
<path id="Vector_2" d="M22.4998 16.9343C25.0873 16.9343 27.2979 18.9685 27.9181 21.6952H17.0829C17.7017 18.9699 19.9123 16.9343 22.4998 16.9343ZM22.4998 15.541C18.6804 15.541 15.5811 18.9058 15.5051 23.0885H29.4959C29.4186 18.9072 26.3192 15.541 22.4998 15.541Z" fill="#3D545B"/>
<g id="Group_2">
<path id="Vector_3" d="M33.6908 36.989V38.608H11.309V36.989H33.6908ZM35.0971 35.5957H9.90271V40.0013H35.0957L35.0971 35.5957Z" fill="#3D545B"/>
</g>
<g id="Group_3">
<path id="Vector_4" d="M17.2266 28.627H15.8203V36.2204H17.2266V28.627Z" fill="#3D545B"/>
</g>
<g id="Group_4">
<path id="Vector_5" d="M29.1797 28.5H27.7734V36.0935H29.1797V28.5Z" fill="#3D545B"/>
</g>
<path id="Vector_6" d="M41.4844 29.2592H3.51562C1.57641 29.2592 0 27.6974 0 25.776V3.48324C0 1.56189 1.57641 0 3.51562 0H41.4844C43.4236 0 45 1.56189 45 3.48324V25.776C45 27.6974 43.4236 29.2592 41.4844 29.2592ZM3.51562 1.3933C2.35266 1.3933 1.40625 2.33099 1.40625 3.48324V25.776C1.40625 26.9283 2.35266 27.8659 3.51562 27.8659H41.4844C42.6473 27.8659 43.5938 26.9283 43.5938 25.776V3.48324C43.5938 2.33099 42.6473 1.3933 41.4844 1.3933H3.51562Z" fill="#3D545B"/>
</g>
</svg>
