<svg width="60" height="60" viewBox="0 0 60 60" fill="none" xmlns="http://www.w3.org/2000/svg">
<path d="M60 30C60 46.5685 46.5685 60 30 60C13.4315 60 0 46.5685 0 30C0 13.4315 13.4315 0 30 0C46.5685 0 60 13.4315 60 30Z" fill="#FCAA2F"/>
<path d="M51.9735 24.0452L50.3464 13.25C50.2969 12.9136 50.1393 12.6031 49.8981 12.3666L35.8265 33.4605H43.846C44.5395 33.4598 45.199 33.1563 45.6558 32.6275L51.3924 26.0309C51.8663 25.4886 52.079 24.7616 51.9735 24.0452ZM49.1675 11.9628C49.2233 11.8688 45.1969 11.944 45.0996 11.9207C44.7974 11.92 44.5053 12.0307 44.2777 12.232L38.5577 17.3057C38.5336 17.3299 38.5055 17.3499 38.4748 17.3646L35.8596 31.9124L49.1675 11.9628ZM37.6777 17.1289L33.9917 15.0591C33.6309 14.8563 33.2254 14.7492 32.8129 14.7478H26.9351C26.5512 14.748 26.1728 14.8402 25.8309 15.0171L22.1118 16.9607L25.1087 33.4605H34.7472L37.6777 17.1289ZM21.2483 17.1122L15.7193 12.232C15.4909 12.0319 15.1993 11.9215 14.8974 11.9207H11.5435C11.2417 11.9193 10.9466 12.0101 10.6966 12.1816L24.0211 32.1311C23.9636 32.0967 21.392 17.0731 21.2483 17.1122ZM10.0242 13.1996L8.04002 24.121C7.90725 24.8541 8.10862 25.6087 8.58799 26.174L14.1171 32.619C14.5752 33.1518 15.2378 33.4585 15.9351 33.4605H23.9132L10.1405 12.8378C10.1405 12.8378 10.0453 13.0738 10.0242 13.1996ZM29.9067 47.2847C30.2957 47.841 31.0525 48.0866 31.7253 48.084H36.0423C36.6759 48.0801 37.2738 47.7864 37.6694 47.2847L40.849 43.2039L26.9157 43.0375L29.9067 47.2847ZM43.4973 39.3503L37.4204 42.3625H41.5048L43.6799 39.5775C43.7265 39.5229 43.7276 39.4422 43.6826 39.3863C43.6377 39.3303 43.5595 39.3152 43.4973 39.3503ZM34.5895 34.3019H25.2664L26.6694 42.0596C26.6911 42.1622 26.7188 42.2634 26.7525 42.3626H33.1366L34.5895 34.3019Z" fill="#587882"/>
</svg>
