<svg width="48" height="49" viewBox="0 0 48 49" fill="none" xmlns="http://www.w3.org/2000/svg">
<path d="M28.9744 22.7291H29.0601H28.9744ZM28.9744 22.7291L28.9746 14.9548L26.9822 18.8936L26.9818 22.729V22.7291C26.9818 22.7738 26.984 22.8179 26.9883 22.8615L26.9818 22.858V23.9719V23.9748C26.9818 23.9748 26.9818 23.9749 26.9818 23.9749C26.9818 24.0534 26.9701 24.1293 26.9477 24.201L26.8245 24.2769C26.8715 24.1848 26.8964 24.082 26.8964 23.9749V18.8936C26.8964 18.6858 27.0646 18.5173 27.2726 18.5173C27.4804 18.5173 27.6489 18.6855 27.6489 18.8936M28.9744 22.7291C28.9744 22.9067 28.9058 23.0736 28.7805 23.1989C28.6556 23.3235 28.4893 23.3925 28.3114 23.3925C27.946 23.3925 27.6484 23.095 27.6484 22.7291L27.6489 18.8936M27.6489 18.8936H27.5631H27.6489ZM24.6238 25.5997L24.6238 25.5997L24.6238 25.5997ZM24.6238 25.5997L24.6239 25.5998L24.6238 25.5997ZM26.2145 25.3901C26.218 25.3618 26.2209 25.3333 26.2233 25.3048C26.2265 25.3048 26.2297 25.3048 26.233 25.3048C26.233 25.3048 26.2331 25.3048 26.2332 25.3048C26.5879 25.3048 26.9231 25.1652 27.1733 24.9161L27.1737 24.9156C27.1737 24.9156 27.1737 24.9156 27.1737 24.9156C27.1738 24.9155 27.1738 24.9155 27.1738 24.9155L26.2145 25.3901ZM26.2145 25.3901C26.2206 25.3902 26.2268 25.3903 26.233 25.3903C26.6114 25.3903 26.9669 25.243 27.234 24.9758C27.2858 24.9242 27.3331 24.8692 27.3757 24.8113L26.2145 25.3901ZM24.9463 24.3125L24.8985 25.1302L24.896 25.1742C24.8848 25.3658 24.8102 25.5333 24.6841 25.6596L24.9463 24.3125ZM24.9463 24.3125C24.9181 24.2047 24.9031 24.0917 24.9031 23.9752V23.9168V23.9167L24.9033 18.8938M24.9463 24.3125L25.4841 18.8938M24.9033 18.8938V18.8938L25.1937 18.8938L25.4841 18.8938M24.9033 18.8938C24.9033 19.0542 25.0336 19.1842 25.1937 19.1842C25.3542 19.1842 25.4841 19.0539 25.4841 18.8938M24.9033 18.8938H25.1937H25.4841M25.4841 18.8938V23.9168V23.9752V24.4119V18.8938ZM25.0957 26.0707L25.0955 26.0709L25.3657 25.8608C25.3401 25.8488 25.3149 25.8364 25.29 25.8236C25.2358 25.9125 25.1708 25.9954 25.0957 26.0707ZM25.4819 25.2084C25.4779 25.2761 25.4689 25.343 25.455 25.4086L25.5615 25.2131L25.7813 25.2259C25.7182 25.2031 25.6574 25.1757 25.5991 25.144C25.5595 25.1225 25.5212 25.099 25.4841 25.0737V25.1302C25.4841 25.1564 25.4834 25.1825 25.4819 25.2084Z" fill="#FDD293" stroke="#FDD293" stroke-width="1.33333"/>
<path d="M15.7378 30.6467L20.0952 28.0328C20.2474 27.9414 20.355 27.7965 20.3979 27.6252M15.7378 30.6467L15.782 30.7202L15.8809 30.8848L15.881 30.8848L15.9317 30.9691L15.932 30.9696L16.0814 31.2181M15.7378 30.6467C15.5599 30.7537 15.502 30.9848 15.6089 31.1629C15.7157 31.3413 15.9465 31.3992 16.1251 31.2918L21.9964 27.9259C21.9962 27.9259 21.996 27.9258 21.9958 27.9258C21.9957 27.9258 21.9957 27.9258 21.9957 27.9258C21.9329 27.9102 21.8713 27.9028 21.8116 27.9028C21.7012 27.9028 21.5849 27.9309 21.4696 27.9911L21.4299 28.0119L21.4299 28.0119L20.7127 28.3862C20.644 28.4575 20.567 28.5213 20.483 28.5763V28.6776L20.4825 28.6768L20.4823 28.6764L20.4388 28.604C20.4387 28.6041 20.4386 28.6042 20.4384 28.6043L20.4382 28.6044L20.4381 28.6045L16.0814 31.2181M15.7378 30.6467L15.7819 30.7203L15.9313 30.9693L15.9316 30.9698L15.9988 31.0818L15.9988 31.0819L16.0808 31.2184L16.0809 31.2183L16.081 31.2183L16.0814 31.2181M16.0814 31.2181C16.2179 31.136 16.2632 30.9586 16.181 30.8206C16.181 30.8206 16.181 30.8205 16.1809 30.8205C16.1809 30.8205 16.1809 30.8204 16.1809 30.8204C16.1808 30.8203 16.1807 30.8202 16.1807 30.8201C16.1806 30.8199 16.1805 30.8198 16.1805 30.8197C16.0978 30.6826 15.9193 30.6381 15.7822 30.7201L20.1392 28.1062L20.1393 28.1062L20.1393 28.1062L20.2976 28.0112H20.2979L20.5161 27.8803L20.5055 27.6521L20.3979 27.6252M20.3979 27.6252L20.5055 27.6521L19.3757 26.9179C19.6897 26.7292 20.1039 26.8037 20.2976 27.0838M20.3979 27.6252C20.445 27.4372 20.4092 27.2449 20.2976 27.0838M20.2976 27.0838L20.2978 27.0836L20.2976 27.0838ZM9.36916 31.3275C9.37404 31.3205 9.37879 31.3137 9.38341 31.3071L9.50762 31.1008L9.51107 31.0951L9.55533 31.0216C9.75791 30.6851 10.284 29.7387 11.8256 26.9615M9.36916 31.3275L11.8256 26.9615M9.36916 31.3275C9.36925 31.3273 9.36935 31.3272 9.36944 31.3271L9.37081 31.328L9.36916 31.3275ZM9.36916 31.3275L9.29913 31.2784L9.36916 31.3275ZM11.8256 26.9615C11.7992 26.9515 11.7729 26.9401 11.7467 26.9271C11.7614 26.9007 11.7751 26.876 11.7877 26.8532C11.839 26.7609 11.8737 26.6983 11.8876 26.6732L11.9634 26.7132C11.9166 26.7975 11.8707 26.8803 11.8256 26.9615ZM9.37017 31.3291L9.36872 31.3281C9.36882 31.3279 9.36893 31.3278 9.36903 31.3276L9.37017 31.3291ZM11.8945 26.6609L11.3114 26.3377L11.9712 26.6992L11.8945 26.6609ZM12.0747 26.4118C12.0995 26.4256 12.1241 26.4411 12.1482 26.4582L13.0124 26.004C12.6614 26.0038 12.3187 26.1486 12.0747 26.4118ZM17.9211 34.2851C17.9211 34.2852 17.921 34.2852 17.9209 34.2853L17.9211 34.2851Z" fill="#FDD293" stroke="#FDD293" stroke-width="1.33333"/>
<path d="M32.5259 30.7199C32.5259 30.7198 32.5258 30.7198 32.5258 30.7198L32.5259 30.7199Z" fill="#FDD293" stroke="#FDD293" stroke-width="1.33333"/>
</svg>
