<svg width="48" height="49" viewBox="0 0 48 49" fill="none" xmlns="http://www.w3.org/2000/svg">
<path d="M5.5 17V17.5H6H42H42.5V17V14.75C42.5 13.6228 42.0522 12.5418 41.2552 11.7448C40.4582 10.9478 39.3772 10.5 38.25 10.5H9.75C8.62283 10.5 7.54183 10.9478 6.7448 11.7448C5.94777 12.5418 5.5 13.6228 5.5 14.75V17ZM42.5 20V19.5H42H6H5.5V20V34.25C5.5 35.3772 5.94777 36.4582 6.7448 37.2552C7.54183 38.0522 8.62283 38.5 9.75 38.5H38.25C39.3772 38.5 40.4582 38.0522 41.2552 37.2552C42.0522 36.4582 42.5 35.3772 42.5 34.25V20ZM3.5 14.75C3.5 13.0924 4.15848 11.5027 5.33058 10.3306C6.50268 9.15848 8.0924 8.5 9.75 8.5H38.25C39.9076 8.5 41.4973 9.15848 42.6694 10.3306C43.8415 11.5027 44.5 13.0924 44.5 14.75V34.25C44.5 35.9076 43.8415 37.4973 42.6694 38.6694C41.4973 39.8415 39.9076 40.5 38.25 40.5H9.75C8.0924 40.5 6.50268 39.8415 5.33058 38.6694C4.15848 37.4973 3.5 35.9076 3.5 34.25V14.75ZM31.5 29.5H36C36.2652 29.5 36.5196 29.6054 36.7071 29.7929C36.8946 29.9804 37 30.2348 37 30.5C37 30.7652 36.8946 31.0196 36.7071 31.2071C36.5196 31.3946 36.2652 31.5 36 31.5H31.5C31.2348 31.5 30.9804 31.3946 30.7929 31.2071C30.6054 31.0196 30.5 30.7652 30.5 30.5C30.5 30.2348 30.6054 29.9804 30.7929 29.7929C30.9804 29.6054 31.2348 29.5 31.5 29.5Z" fill="#FDD293" stroke="#FDD293"/>
</svg>
