<svg width="48" height="49" viewBox="0 0 48 49" fill="none" xmlns="http://www.w3.org/2000/svg">
<path d="M2 36.5C2 32 8 32 11 29C12.5 27.5 8 27.5 8 20C8 15.0005 9.9995 12.5 14 12.5C18.0005 12.5 20 15.0005 20 20C20 27.5 15.5 27.5 17 29C20 32 26 32 26 36.5" stroke="#FDD293" stroke-width="2" stroke-linecap="round"/>
<path d="M24 32.5C25.134 31.7185 25.6061 31.642 27.0147 30.9635C28.1161 30.4331 29.1786 29.8319 30.0105 29C31.5105 27.5 27.0105 27.5 27.0105 20C27.0105 15.0005 29.01 12.5 33.0105 12.5C37.011 12.5 39.0105 15.0005 39.0105 20C39.0105 27.5 34.5105 27.5 36.0105 29C39.0105 32 45.0105 32 45.0105 36.5" stroke="#FDD293" stroke-width="2" stroke-linecap="round"/>
</svg>
