<svg width="96" height="79" viewBox="0 0 96 79" fill="none" xmlns="http://www.w3.org/2000/svg">
<path fill-rule="evenodd" clip-rule="evenodd" d="M95.579 12.6822C81.2634 19.4501 74.1057 27.4023 74.1057 36.539C80.2074 37.2158 85.253 39.6128 89.2426 43.7299C93.2322 47.8471 95.227 52.6128 95.227 58.0271C95.227 63.7799 93.2909 68.6301 89.4186 72.5781C85.5464 76.526 80.6768 78.5 74.8098 78.5C68.2387 78.5 62.5477 75.9339 57.7367 70.8015C52.9258 65.6692 50.5203 59.4371 50.5203 52.1052C50.5203 30.1094 63.3103 12.9079 88.8906 0.5L95.579 12.6822ZM45.0587 12.6822C30.6257 19.4501 23.4094 27.4023 23.4094 36.539C29.6284 37.2158 34.7327 39.6128 38.7223 43.7299C42.7119 47.8471 44.7066 52.6128 44.7066 58.0271C44.7066 63.7799 42.7412 68.6301 38.8103 72.5781C34.8794 76.526 29.9805 78.5 24.1134 78.5C17.5423 78.5 11.8807 75.9339 7.12842 70.8015C2.37612 65.6692 0 59.4371 0 52.1052C0 30.1094 12.7313 12.9079 38.1943 0.5L45.0587 12.6822Z" fill="#93C6D6"/>
</svg>
